<svg width="132" height="24" viewBox="0 0 132 24" fill="none" xmlns="http://www.w3.org/2000/svg">
<path d="M0.206894 0.0190461C2.89672 0.0190461 5.60788 -0.00238426 8.29771 0.0190461C9.00653 0.0194442 9.71387 0.0839965 10.4111 0.211919C14.0616 0.87626 16.111 3.39218 16.0043 6.99248C15.8975 10.2285 13.5279 12.7787 9.98418 13.0573C6.73932 13.3059 3.47311 13.2501 0.206894 13.3059V0.0190461ZM4.54049 9.61984C6.14158 9.61984 7.69997 9.74842 9.23701 9.57698C10.774 9.40553 11.6707 8.22687 11.7134 6.70531C11.7347 5.09804 10.9448 3.91937 9.3224 3.6622C7.76401 3.42647 6.16293 3.46933 4.54049 3.40504V9.61984Z" fill="white"/>
<path d="M131.46 11.7435C131.46 11.6407 131.46 11.5292 131.46 11.435C131.46 11.2335 131.46 11.0321 131.46 10.8328C131.455 10.68 131.442 10.5277 131.421 10.3763C131.421 10.3184 131.406 10.2584 131.398 10.2006C131.395 10.1892 131.395 10.1776 131.398 10.1663C130.971 6.35168 127.726 3.5443 122.987 4.10149C122.023 4.20273 121.091 4.50571 120.251 4.99088C119.412 5.47605 118.683 6.13263 118.111 6.91821C117.54 7.70378 117.139 8.60091 116.934 9.55166C116.73 10.5024 116.726 11.4856 116.924 12.4379C121.492 12.4379 126.103 12.4379 130.714 12.4165C130.96 12.3972 131.227 12.1786 131.474 12.0479L131.46 11.7435ZM120.865 9.90697C121.163 8.10682 122.444 7.12102 124.259 7.12102C125.582 7.12102 127.418 8.2354 127.397 9.90697H120.865Z" fill="white"/>
<path d="M61.902 23.5924C61.0481 23.2924 60.1728 23.0138 59.3189 22.7138C59.0723 22.5776 58.843 22.4121 58.6358 22.2209C59.1268 21.2565 59.5964 20.335 60.0874 19.3492C60.3223 19.4778 60.493 19.5849 60.6852 19.6707C62.5424 20.6779 63.8873 20.2493 64.7199 18.2991C66.5772 13.9916 68.4344 9.68411 70.2063 5.33375C70.5905 4.41225 71.0388 4.06936 71.9995 4.17652C72.8107 4.26224 73.6219 4.19795 74.6039 4.19795C74.4545 4.64798 74.3478 4.96944 74.2197 5.26946C72.3838 9.61982 70.4625 13.9488 68.7119 18.342C67.6872 20.9136 66.321 22.9924 63.4177 23.5924H61.902Z" fill="#FAC637"/>
<path d="M0.206894 14.1631H4.41241V18.2348H0.206894V14.1631Z" fill="#FAC637"/>
<path d="M64.2503 17.279C62.4357 12.8644 60.7492 8.74973 58.9774 4.44224C57.3549 6.71385 55.8179 8.85689 54.2595 11.0642C56.0314 13.4215 57.7605 15.736 59.6391 18.2219C58.0381 18.2219 56.6718 18.2434 55.3055 18.2005C55.0707 18.2005 54.7718 17.9005 54.6011 17.6648C53.7258 16.4861 52.8932 15.3074 51.9539 14.0002C51.036 15.2431 50.2034 16.4432 49.2855 17.5576C48.9807 17.9105 48.5529 18.1328 48.09 18.1791C46.9372 18.2648 45.7631 18.2005 44.3755 18.2005C44.8878 17.5147 45.2721 16.9576 45.699 16.4004C46.8518 14.8574 48.0046 13.3144 49.2214 11.8143C49.6484 11.2785 49.6057 10.9571 49.2001 10.4427C47.663 8.44971 46.1687 6.3924 44.5036 4.18507C46.1046 4.18507 47.4922 4.16364 48.9012 4.2065C49.136 4.2065 49.3922 4.57082 49.5843 4.80655C50.3955 5.87807 51.1854 6.99245 52.0607 8.19255C52.9359 7.01388 53.7258 5.87807 54.6224 4.82798C54.8999 4.50653 55.4123 4.18507 55.8179 4.18507C57.91 4.12078 60.0234 4.18507 62.1155 4.14221C62.6919 4.14221 62.9907 4.31365 63.2256 4.87084C64.1649 7.22818 65.1469 9.54266 66.1075 11.9C66.25 12.2084 66.2802 12.5573 66.1929 12.8858C65.6165 14.3216 64.9761 15.6632 64.2503 17.279Z" fill="white"/>
<path d="M35.3027 18.4491C33.1252 18.4062 30.5848 17.2918 29.2613 14.3773C28.0017 11.6342 28.2793 8.934 30.2433 6.55524C32.3567 3.98359 36.6903 3.23353 39.9565 4.79795C42.9665 6.25521 44.4182 9.31975 43.7778 12.8343C43.1373 16.2075 40.1059 18.4491 35.3027 18.4491ZM39.743 11.2271C39.743 8.934 38.2914 7.34816 36.242 7.36959C34.1926 7.39102 32.6983 9.04116 32.6983 11.2271C32.6983 13.4987 34.1499 15.0417 36.242 15.0417C38.3341 15.0417 39.743 13.5715 39.743 11.2356V11.2271Z" fill="white"/>
<path d="M103.616 5.66378C105.494 4.1208 107.501 3.75648 109.657 4.16366C112.091 4.63512 113.734 6.4567 113.884 9.24265C114.055 12.1786 113.927 15.1574 113.927 18.1791H109.892V12.1786C109.906 11.4988 109.878 10.8189 109.806 10.1427C109.593 8.53545 108.76 7.69966 107.309 7.57108C105.793 7.4425 104.405 8.29971 104 9.71411C103.835 10.3361 103.756 10.9779 103.765 11.6214C103.744 13.7859 103.744 15.9718 103.744 18.2005H99.709V4.3051H103.509C103.552 4.69942 103.573 5.08516 103.616 5.66378Z" fill="white"/>
<path d="M80.7948 0.0490723H76.6106C76.6106 6.15672 76.6106 12.1786 76.632 18.1791H89.8249V14.7503H80.7948V0.0490723Z" fill="white"/>
<path d="M27.2972 4.12083V7.76399H26.6141C24.095 7.76399 22.8142 9.04981 22.8142 11.6C22.7928 13.7002 22.7928 15.8218 22.7928 17.922C22.7724 18.0171 22.7438 18.1103 22.7074 18.2006H18.7581V4.30513H22.5153C22.558 4.79803 22.6007 5.22664 22.6434 5.6981C24.9062 4.18512 25.4613 3.99225 27.2972 4.12083Z" fill="white"/>
<path d="M95.8877 18.2349H92.5361C92.3226 18.2349 92.1305 18.192 91.8743 18.1706V4.27087H95.8663C95.8877 8.92126 95.8877 13.5502 95.8877 18.2349Z" fill="white"/>
<path d="M130.471 16.2076C128.037 18.6721 125.113 18.8435 122.06 18.1363C119.349 17.4934 117.385 15.4789 117.043 13.2287C118.282 13.2287 119.498 13.2073 120.737 13.2502C120.855 13.2605 120.97 13.2966 121.073 13.3558C121.176 13.415 121.265 13.4959 121.334 13.5931C122.53 15.5432 126.18 15.6504 127.845 14.1717C127.952 14.086 128.08 14.0002 128.294 13.8502C128.657 14.2145 129.019 14.6003 129.361 14.986C129.703 15.3718 130.065 15.7575 130.471 16.2076Z" fill="#FAC637"/>
</svg>
