<svg width="6" height="11" viewBox="0 0 6 11" fill="none" xmlns="http://www.w3.org/2000/svg">
<path d="M0.219701 9.46967C-0.0731928 9.76256 -0.0731928 10.2374 0.2197 10.5303C0.512594 10.8232 0.987467 10.8232 1.28036 10.5303L0.219701 9.46967ZM5.25003 5.5L5.78036 6.03033C5.92101 5.88968 6.00003 5.69891 6.00003 5.5C6.00003 5.30109 5.92101 5.11032 5.78036 4.96967L5.25003 5.5ZM1.28036 0.46967C0.987467 0.176777 0.512594 0.176777 0.2197 0.46967C-0.0731928 0.762563 -0.0731928 1.23744 0.219701 1.53033L1.28036 0.46967ZM1.28036 10.5303L5.78036 6.03033L4.7197 4.96967L0.219701 9.46967L1.28036 10.5303ZM5.78036 4.96967L1.28036 0.46967L0.219701 1.53033L4.7197 6.03033L5.78036 4.96967Z" fill="#636363"/>
</svg>
