<svg width="15" height="16" viewBox="0 0 15 16" fill="none" xmlns="http://www.w3.org/2000/svg">
<path d="M10.1561 14.75H4.84393C4.41878 14.75 4.0093 14.5895 3.69736 14.3007C3.38542 14.0118 3.19401 13.6158 3.1614 13.1919L2.4375 3.78125H12.5625L11.8386 13.1919C11.806 13.6158 11.6146 14.0118 11.3026 14.3007C10.9907 14.5895 10.5812 14.75 10.1561 14.75V14.75Z" stroke="#E23A3A" stroke-width="1.5" stroke-linecap="round" stroke-linejoin="round"/>
<path d="M13.5 3.78125H1.5" stroke="#E23A3A" stroke-width="1.5" stroke-linecap="round" stroke-linejoin="round"/>
<path d="M5.39062 1.25H9.60938C9.83315 1.25 10.0478 1.33889 10.206 1.49713C10.3642 1.65536 10.4531 1.86997 10.4531 2.09375V3.78125H4.54688V2.09375C4.54688 1.86997 4.63577 1.65536 4.794 1.49713C4.95224 1.33889 5.16685 1.25 5.39062 1.25V1.25Z" stroke="#E23A3A" stroke-width="1.5" stroke-linecap="round" stroke-linejoin="round"/>
<path d="M8.97656 7.15625V11.375" stroke="#E23A3A" stroke-width="1.5" stroke-linecap="round" stroke-linejoin="round"/>
<path d="M6.02344 7.15625V11.375" stroke="#E23A3A" stroke-width="1.5" stroke-linecap="round" stroke-linejoin="round"/>
</svg>
