<svg width="28" height="28" viewBox="0 0 28 28" fill="none" xmlns="http://www.w3.org/2000/svg">
<path d="M8.17833 5.8335H5.845H5.83333C4.53833 5.8335 3.5 6.87183 3.5 8.16683V22.1668C3.5 23.4502 4.53833 24.4885 5.83333 24.4885H11.6667" stroke="#FAC637" stroke-width="1.5" stroke-linecap="round" stroke-linejoin="round"/>
<path d="M16.345 3.5H9.345C8.70066 3.5 8.17833 4.02233 8.17833 4.66667V7C8.17833 7.64433 8.70066 8.16667 9.345 8.16667H16.345C16.9893 8.16667 17.5117 7.64433 17.5117 7V4.66667C17.5117 4.02233 16.9893 3.5 16.345 3.5Z" stroke="#FAC637" stroke-width="1.5" stroke-linecap="round" stroke-linejoin="round"/>
<path d="M17.5117 5.8331H19.845H19.8333C21.1167 5.82144 22.1667 6.87144 22.1667 8.15477V12.8214" stroke="#FAC637" stroke-width="1.5" stroke-linecap="round" stroke-linejoin="round"/>
<path d="M21.665 17.2198L24.2783 21.8748C24.745 22.7148 24.4417 23.7882 23.6017 24.2548C23.3333 24.3948 23.0417 24.4765 22.7383 24.4765H17.5V24.4753C16.52 24.4753 15.7383 23.682 15.7383 22.7137C15.7267 22.4103 15.8083 22.107 15.96 21.8503L18.5733 17.1837H18.5617C19.0283 16.332 20.1017 16.0287 20.9417 16.507C21.2217 16.6587 21.4433 16.892 21.6067 17.172L21.665 17.2198Z" stroke="#FAC637" stroke-width="1.5" stroke-linecap="round" stroke-linejoin="round"/>
</svg>
