<svg width="12" height="14" viewBox="0 0 12 14" fill="none" xmlns="http://www.w3.org/2000/svg">
<path d="M8 11.9332V6.24184C8 5.9585 7.88734 5.68717 7.68734 5.48717L6.17934 3.97917C5.97934 3.77917 5.708 3.6665 5.42467 3.6665H1.73334C1.144 3.6665 0.666672 4.14384 0.666672 4.73317V11.9332C0.666672 12.5225 1.144 12.9998 1.73334 12.9998H6.93334C7.52267 12.9998 8 12.5225 8 11.9332V11.9332Z" stroke="#CBCBCB" stroke-linecap="round" stroke-linejoin="round"/>
<path d="M8 10.3333H10.2667C10.856 10.3333 11.3333 9.856 11.3333 9.26667V3.57533C11.3333 3.292 11.2207 3.02067 11.0207 2.82067L9.51267 1.31267C9.31267 1.11267 9.04133 1 8.758 1H5.06667C4.47733 1 4 1.47733 4 2.06667V3.66667" stroke="#CBCBCB" stroke-linecap="round" stroke-linejoin="round"/>
<path d="M11.3333 3.66667H9.2C8.90534 3.66667 8.66667 3.428 8.66667 3.13333V1" stroke="#CBCBCB" stroke-linecap="round" stroke-linejoin="round"/>
<path d="M8.00001 6.33317H5.86668C5.57201 6.33317 5.33334 6.0945 5.33334 5.79984V3.6665" stroke="#CBCBCB" stroke-linecap="round" stroke-linejoin="round"/>
</svg>
