<svg width="14" height="12" viewBox="0 0 14 12" fill="none" xmlns="http://www.w3.org/2000/svg">
<path d="M1.0785 6.3115C0.973833 6.1175 0.973833 5.88216 1.0785 5.68816C2.33983 3.3555 4.66983 1.3335 6.99983 1.3335C9.32983 1.3335 11.6598 3.3555 12.9212 5.68883C13.0258 5.88283 13.0258 6.11816 12.9212 6.31216C11.6598 8.64483 9.32983 10.6668 6.99983 10.6668C4.66983 10.6668 2.33983 8.64483 1.0785 6.3115V6.3115Z" stroke="white" stroke-width="1.5" stroke-linecap="round" stroke-linejoin="round"/>
<path d="M8.41403 4.58579C9.19507 5.36683 9.19507 6.63316 8.41403 7.41421C7.63298 8.19526 6.36665 8.19526 5.5856 7.41421C4.80456 6.63316 4.80456 5.36683 5.5856 4.58579C6.36665 3.80474 7.63298 3.80474 8.41403 4.58579Z" stroke="white" stroke-width="1.4286" stroke-linecap="round" stroke-linejoin="round"/>
</svg>
