<svg width="46" height="13" viewBox="0 0 46 13" fill="none" xmlns="http://www.w3.org/2000/svg">
<path d="M1.01732 0.650749C0.621102 0.83287 0.267716 1.20782 0.117795 1.6042C0.0428346 1.80775 0 3.71465 0 7.20707V12.4993H2.46299V9.17825H5.73984L6.59653 10.8388L7.44252 12.4993H8.86677C9.63779 12.4993 10.2803 12.4671 10.2803 12.435C10.2803 12.3921 9.84126 11.5137 9.29512 10.4852L8.32063 8.59976L8.57764 8.43906C10.0233 7.48561 10.6658 5.61084 10.2803 3.46825C10.034 2.16127 9.4022 1.23996 8.42771 0.811443C7.88157 0.565046 7.78519 0.554333 4.60472 0.532907C2.03465 0.511481 1.27433 0.532907 1.01732 0.650749ZM7.22834 3.07188C7.39968 3.13615 7.57102 3.32899 7.6674 3.57538C7.87086 4.05747 7.89228 5.28945 7.71023 5.6537C7.24976 6.54287 6.6822 6.71428 4.26205 6.71428H2.46299V2.96475H4.7011C5.9326 2.96475 7.06771 3.0076 7.22834 3.07188ZM13.9213 0.597185C12.8611 0.918573 12.1008 1.67919 11.7795 2.71835C11.5225 3.55396 11.2441 5.52514 11.2441 6.47859C11.2441 7.39991 11.5011 9.27467 11.726 10.0353C12.1222 11.353 12.7968 12.0279 14.0391 12.3493C14.5745 12.4886 15.142 12.51 16.9625 12.4778C19.0507 12.4457 19.2649 12.4136 19.7896 12.1886C21.2995 11.5137 21.9528 9.79961 21.9528 6.50002C21.942 3.02902 21.2674 1.31495 19.6718 0.72574C19.1042 0.522194 18.8579 0.500769 16.6198 0.511481C15.2813 0.511481 14.0712 0.554333 13.9213 0.597185ZM18.9008 3.21114C19.6183 4.19673 19.6076 9.0497 18.8794 9.76747C18.6652 9.99244 14.5424 10.0032 14.3603 9.78889C13.857 9.17825 13.675 5.6537 14.0605 4.0039C14.2211 3.35041 14.3068 3.14687 14.4888 3.07188C14.6173 3.01831 15.6346 2.98617 16.7376 2.99688C18.5474 3.01831 18.7723 3.03974 18.9008 3.21114ZM24.2658 0.736453C24.0302 0.875721 23.7411 1.15426 23.6233 1.3578C23.4091 1.72204 23.3984 1.91488 23.3663 6.20006C23.3449 9.18897 23.377 10.8066 23.452 11.1066C23.634 11.7708 24.1052 12.2529 24.7477 12.3814C25.4116 12.5314 30.1342 12.5314 30.9802 12.3921C32.6293 12.1243 33.4753 11.1601 33.5931 9.39251C33.668 8.39621 33.5074 7.65702 33.0898 6.99281L32.7792 6.51073L33.1754 5.7394C33.5609 5.00021 33.5716 4.92521 33.5716 3.88606C33.5716 2.99688 33.5181 2.70763 33.3253 2.2684C33.0148 1.59349 32.64 1.19711 31.9653 0.843582L31.4299 0.554333L28.0567 0.522194C24.7156 0.500769 24.6835 0.500769 24.2658 0.736453ZM30.8945 3.0933C31.0444 3.24328 31.1408 3.96105 31.0444 4.29315C30.9909 4.48598 30.8195 4.75381 30.6696 4.90379C30.4019 5.1609 30.359 5.1609 28.1531 5.19304L25.915 5.22518V2.95403L28.3672 2.98617C29.7165 3.0076 30.8516 3.05045 30.8945 3.0933ZM30.4233 7.87127C30.8516 8.04268 31.0872 8.50334 31.0765 9.11398C31.0658 9.49964 31.0123 9.69248 30.8838 9.78889C30.7446 9.89602 30.0699 9.92816 28.303 9.92816H25.915V7.65702L28.0353 7.69987C29.1918 7.73201 30.2734 7.807 30.4233 7.87127ZM37.1805 0.72574C36.1417 1.13283 35.617 1.86131 35.2101 3.46825C35.0066 4.28244 34.9745 4.71096 34.9745 6.50002C34.9745 8.44977 34.9959 8.66403 35.2636 9.66034C35.5956 10.8709 35.9061 11.3958 36.5272 11.8565C37.2983 12.4029 37.5338 12.4457 40.2646 12.4457C42.9953 12.4457 43.2309 12.4029 44.0019 11.8565C44.623 11.3958 44.9335 10.8709 45.2655 9.66034C45.5332 8.66403 45.5546 8.44977 45.5546 6.50002C45.5546 4.71096 45.5225 4.28244 45.319 3.46825C44.9121 1.83989 44.3874 1.12212 43.3165 0.72574C42.7704 0.522194 42.5027 0.500769 40.2324 0.511481C37.9943 0.511481 37.6945 0.532907 37.1805 0.72574ZM42.342 3.07188C42.6312 3.179 42.7597 3.51111 42.9631 4.72167C43.2201 6.21077 42.9953 9.01756 42.5669 9.67105C42.4063 9.92816 42.3956 9.92816 40.2646 9.92816C37.7587 9.92816 37.9087 10.0032 37.6302 8.57833C37.234 6.60715 37.5553 3.31827 38.155 3.07188C38.4762 2.94332 41.9994 2.94332 42.342 3.07188Z" fill="#4F4F4F"/>
</svg>
