<svg width="32" height="32" viewBox="0 0 32 32" fill="none" xmlns="http://www.w3.org/2000/svg">
<path d="M27.7233 12.6981C28.7767 13.7514 28.7767 15.4593 27.7233 16.5126C26.67 17.566 24.9621 17.566 23.9087 16.5126C22.8554 15.4593 22.8554 13.7514 23.9087 12.6981C24.9621 11.6447 26.67 11.6447 27.7233 12.6981Z" stroke="#4F4F4F" stroke-width="1.5" stroke-linecap="round" stroke-linejoin="round"/>
<path d="M18.9368 7.88317C20.5588 9.50514 20.5588 12.1349 18.9368 13.7569C17.3148 15.3788 14.6851 15.3788 13.0631 13.7569C11.4411 12.1349 11.4411 9.50515 13.0631 7.88317C14.6851 6.26119 17.3148 6.26119 18.9368 7.88317" stroke="#4F4F4F" stroke-width="1.5" stroke-linecap="round" stroke-linejoin="round"/>
<path d="M8.09129 12.6981C9.14467 13.7514 9.14467 15.4593 8.09129 16.5126C7.03792 17.566 5.33007 17.566 4.27669 16.5126C3.22332 15.4593 3.22332 13.7514 4.27669 12.6981C5.33007 11.6447 7.03792 11.6447 8.09129 12.6981Z" stroke="#4F4F4F" stroke-width="1.5" stroke-linecap="round" stroke-linejoin="round"/>
<path d="M30.6667 25.3334V23.872C30.6667 22.0307 29.1747 20.5387 27.3333 20.5387H26.2653" stroke="#4F4F4F" stroke-width="1.5" stroke-linecap="round" stroke-linejoin="round"/>
<path d="M1.33333 25.3334V23.872C1.33333 22.0307 2.82533 20.5387 4.66666 20.5387H5.73466" stroke="#4F4F4F" stroke-width="1.5" stroke-linecap="round" stroke-linejoin="round"/>
<path d="M23.1187 25.3334V23.1987C23.1187 20.6214 21.0293 18.532 18.452 18.532H13.5467C10.9693 18.532 8.87999 20.6214 8.87999 23.1987V25.3334" stroke="#4F4F4F" stroke-width="1.5" stroke-linecap="round" stroke-linejoin="round"/>
</svg>
