<svg width="21" height="20" viewBox="0 0 21 20" fill="none" xmlns="http://www.w3.org/2000/svg">
<path d="M16.9166 9.16666H18.1666C18.3877 9.16666 18.5996 9.25445 18.7559 9.41073C18.9122 9.56701 19 9.77898 19 9.99999V12.5C19 12.721 18.9122 12.933 18.7559 13.0892C18.5996 13.2455 18.3877 13.3333 18.1666 13.3333H16.9166C16.3641 13.3333 15.8342 13.1138 15.4435 12.7231C15.0528 12.3324 14.8333 11.8025 14.8333 11.25C14.8333 10.6975 15.0528 10.1676 15.4435 9.77685C15.8342 9.38615 16.3641 9.16666 16.9166 9.16666Z" stroke="white" stroke-width="1.5" stroke-linecap="round" stroke-linejoin="round"/>
<path d="M15.6666 2.5H4.83331" stroke="white" stroke-width="1.5" stroke-linecap="round" stroke-linejoin="round"/>
<path d="M18.1667 13.3333V15.4167C18.1667 15.9692 17.9472 16.4991 17.5565 16.8898C17.1658 17.2805 16.6359 17.5 16.0833 17.5H5.24999C4.69746 17.5 4.16755 17.2805 3.77685 16.8898C3.38615 16.4991 3.16666 15.9692 3.16666 15.4167V7.08333C3.16666 6.5308 3.38615 6.00089 3.77685 5.61019C4.16755 5.21949 4.69746 5 5.24999 5H16.0833C16.6359 5 17.1658 5.21949 17.5565 5.61019C17.9472 6.00089 18.1667 6.5308 18.1667 7.08333V9.16667" stroke="white" stroke-width="1.5" stroke-linecap="round" stroke-linejoin="round"/>
</svg>
